<svg xmlns="http://www.w3.org/2000/svg" viewBox="250 448 392 184" width="392" height="184">
  <g fill="#320078">
    <path d="M257.841,626.46c-2.203,0-3.996-1.793-3.996-3.997V506.734c0-1.712,1.39-3.106,3.1-3.106c0.396,0,0.786,0.077,1.16,0.227l25.247,11.86c4.437,1.786,7.303,6.029,7.303,10.81v95.936c0,2.205-1.793,3.997-3.997,3.997H257.841z"></path>
    <path d="M272.25,494.693c-5.923,0-11.492-2.307-15.679-6.493c-4.186-4.186-6.492-9.753-6.49-15.674c0.001-12.222,9.947-22.164,22.171-22.164c5.923,0,11.49,2.306,15.678,6.493c4.186,4.186,6.492,9.753,6.49,15.674C294.418,484.751,284.473,494.693,272.25,494.693L272.25,494.693z"></path>
    <path d="M616.38,494.693c-5.924,0-11.49-2.307-15.678-6.493c-4.186-4.186-6.492-9.753-6.49-15.674c0.001-12.222,9.946-22.164,22.169-22.164c5.924,0,11.492,2.306,15.679,6.493c4.186,4.186,6.492,9.753,6.49,15.674C638.549,484.751,628.603,494.693,616.38,494.693L616.38,494.693z"></path>
    <path d="M414.404,626.46c-2.187,0-3.965-1.793-3.965-3.997v-57.986c0-12.984-10.795-26.221-27.282-26.221c-15.984,0-27.283,13.018-27.283,26.221v57.986c0,2.205-1.778,3.997-3.963,3.997h-28.658c-2.185,0-3.963-1.793-3.963-3.997v-58.548c0-34.196,28.651-62.017,63.868-62.017s63.866,27.821,63.866,62.017v58.548c0,2.205-1.778,3.997-3.963,3.997H414.404z"></path>
    <path d="M522.609,629.638c-22.975,0-40.012-7.912-50.537-24.22c-2.62-4.06,1.13-6.713,2.223-7.327l18.76-8.761c0.607-0.341,3.898-1.315,5.237,0.646c2.321,3.398,5.085,5.978,8.215,7.667c5.89,3.179,17.07,4.033,23.612,1.856c2.477-0.824,4.452-2.034,5.868-3.599c1.386-1.534,2.061-3.349,2.061-5.548c0-2.868-1.412-4.934-4.317-6.317c-3.31-1.576-21.862-5.693-27.551-6.991c-23.185-5.288-33.129-17.016-33.129-34.962c0-24.83,22.428-38.806,48.603-38.806c32.829,0,45.075,20.066,47.329,23.673c1.987,3.179-0.548,5.901-2.528,6.805l-19.111,8.866c-0.588,0.33-1.252,0.505-1.919,0.505c-1.406,0-2.746-0.77-3.502-2.011c-1.667-2.744-3.703-4.687-6.659-6.196c-3.934-2.001-8.272-3.017-12.893-3.017c-2.591,0-4.983,0.424-7.112,1.259c-4.13,1.619-6.653,4.506-6.653,8.205c0,6.049,7.072,8.694,16.069,10.435c5.174,1.001,20.649,3.457,31.636,9.033c8.102,4.112,17.291,11.939,17.291,28.802C573.602,621.351,538.802,629.638,522.609,629.638z"></path>
    <path d="M630.79,626.46c2.203,0,3.996-1.793,3.996-3.997V506.734c0-1.712-1.39-3.106-3.1-3.106c-0.396,0-0.786,0.077-1.16,0.227l-25.247,11.86c-4.437,1.786-7.303,6.029-7.303,10.81v95.936c0,2.205,1.793,3.997,3.997,3.997H630.79z"></path>
  </g>
</svg>
