<svg xmlns="http://www.w3.org/2000/svg" width="256" height="256" viewBox="129.25 395.41 286 286">
  <rect x="129.25" y="395.41" width="286" height="286" rx="66" ry="66" fill="#320078"/>
  <g fill="#ffffff">
    <path d="M257.841,626.46c-2.203,0-3.996-1.793-3.996-3.997V506.734c0-1.712,1.39-3.106,3.1-3.106c0.396,0,0.786,0.077,1.16,0.227l25.247,11.86c4.437,1.786,7.303,6.029,7.303,10.81v95.936c0,2.205-1.793,3.997-3.997,3.997H257.841z"></path>
    <path d="M272.25,494.693c-5.923,0-11.492-2.307-15.679-6.493c-4.186-4.186-6.492-9.753-6.49-15.674c0.001-12.222,9.947-22.164,22.171-22.164c5.923,0,11.49,2.306,15.678,6.493c4.186,4.186,6.492,9.753,6.49,15.674C294.418,484.751,284.473,494.693,272.25,494.693L272.25,494.693z"></path>
  </g>
</svg>
